<svg xmlns="http://www.w3.org/2000/svg" viewBox="0 0 800 440" width="800" height="440" font-family="Arial, Helvetica, sans-serif">
<rect width="800" height="440" fill="#fcfcfb"/>
<text x="60" y="22" font-size="15" font-weight="bold" fill="#0b0b0b">S-Curve biaya kumulatif — cost baseline Bab 6 (juta Rp)</text>
<line x1="60" y1="40" x2="82" y2="40" stroke="#2a78d6" stroke-width="2"/>
<text x="88" y="44" font-size="12" fill="#52514e">PV (rencana)</text>
<line x1="235" y1="40" x2="257" y2="40" stroke="#eb6834" stroke-width="2"/>
<text x="263" y="44" font-size="12" fill="#52514e">EV (ilustrasi/estimasi)</text>
<line x1="410" y1="40" x2="432" y2="40" stroke="#1baf7a" stroke-width="2" stroke-dasharray="6 4"/>
<text x="438" y="44" font-size="12" fill="#52514e">AC (ilustrasi/estimasi)</text>
<line x1="60" y1="388.0" x2="690" y2="388.0" stroke="#e1e0d9" stroke-width="1"/>
<text x="52" y="392.0" font-size="11" fill="#52514e" text-anchor="end">0</text>
<line x1="60" y1="332.7" x2="690" y2="332.7" stroke="#e1e0d9" stroke-width="1"/>
<text x="52" y="336.7" font-size="11" fill="#52514e" text-anchor="end">3</text>
<line x1="60" y1="277.3" x2="690" y2="277.3" stroke="#e1e0d9" stroke-width="1"/>
<text x="52" y="281.3" font-size="11" fill="#52514e" text-anchor="end">6</text>
<line x1="60" y1="222.0" x2="690" y2="222.0" stroke="#e1e0d9" stroke-width="1"/>
<text x="52" y="226.0" font-size="11" fill="#52514e" text-anchor="end">9</text>
<line x1="60" y1="166.7" x2="690" y2="166.7" stroke="#e1e0d9" stroke-width="1"/>
<text x="52" y="170.7" font-size="11" fill="#52514e" text-anchor="end">12</text>
<line x1="60" y1="111.3" x2="690" y2="111.3" stroke="#e1e0d9" stroke-width="1"/>
<text x="52" y="115.3" font-size="11" fill="#52514e" text-anchor="end">15</text>
<line x1="60" y1="56.0" x2="690" y2="56.0" stroke="#e1e0d9" stroke-width="1"/>
<text x="52" y="60.0" font-size="11" fill="#52514e" text-anchor="end">18</text>
<text x="60.0" y="406" font-size="11" fill="#52514e" text-anchor="middle">0</text>
<text x="130.0" y="406" font-size="11" fill="#52514e" text-anchor="middle">1</text>
<text x="200.0" y="406" font-size="11" fill="#52514e" text-anchor="middle">2</text>
<text x="270.0" y="406" font-size="11" fill="#52514e" text-anchor="middle">3</text>
<text x="340.0" y="406" font-size="11" fill="#52514e" text-anchor="middle">4</text>
<text x="410.0" y="406" font-size="11" fill="#52514e" text-anchor="middle">5</text>
<text x="480.0" y="406" font-size="11" fill="#52514e" text-anchor="middle">6</text>
<text x="550.0" y="406" font-size="11" fill="#52514e" text-anchor="middle">7</text>
<text x="620.0" y="406" font-size="11" fill="#52514e" text-anchor="middle">8</text>
<text x="690.0" y="406" font-size="11" fill="#52514e" text-anchor="middle">9</text>
<text x="375.0" y="428" font-size="12" fill="#52514e" text-anchor="middle">Minggu ke- (mulai 12 Oktober 2026)</text>
<line x1="60" y1="388.0" x2="690" y2="388.0" stroke="#52514e" stroke-width="1"/>
<line x1="60" y1="110.7" x2="690" y2="110.7" stroke="#8a8984" stroke-width="1" stroke-dasharray="6 4"/>
<text x="66" y="105.7" font-size="11" fill="#52514e">Cost baseline 15,03</text>
<line x1="60" y1="135.9" x2="690" y2="135.9" stroke="#8a8984" stroke-width="1" stroke-dasharray="2 3"/>
<text x="66" y="130.9" font-size="11" fill="#52514e">BAC (tanpa contingency) 13,67</text>
<line x1="340.0" y1="56" x2="340.0" y2="388.0" stroke="#8a8984" stroke-width="1" stroke-dasharray="3 3"/>
<text x="346.0" y="70" font-size="11" fill="#52514e">Tanggal status (ilustrasi)</text>
<text x="334.0" y="380.0" font-size="11" fill="#52514e" text-anchor="end">← aktual (ilustrasi)</text>
<text x="346.0" y="380.0" font-size="11" fill="#52514e">estimasi →</text>
<polyline points="60.0,388.0 130.0,359.5 200.0,315.7 270.0,292.9 340.0,267.8 410.0,223.8 480.0,185.9 550.0,160.6 620.0,135.9 690.0,135.9" fill="none" stroke="#2a78d6" stroke-width="2" stroke-linejoin="round"/>
<circle cx="60.0" cy="388.0" r="4" fill="#2a78d6" stroke="#fcfcfb" stroke-width="2"/>
<circle cx="130.0" cy="359.5" r="4" fill="#2a78d6" stroke="#fcfcfb" stroke-width="2"/>
<circle cx="200.0" cy="315.7" r="4" fill="#2a78d6" stroke="#fcfcfb" stroke-width="2"/>
<circle cx="270.0" cy="292.9" r="4" fill="#2a78d6" stroke="#fcfcfb" stroke-width="2"/>
<circle cx="340.0" cy="267.8" r="4" fill="#2a78d6" stroke="#fcfcfb" stroke-width="2"/>
<circle cx="410.0" cy="223.8" r="4" fill="#2a78d6" stroke="#fcfcfb" stroke-width="2"/>
<circle cx="480.0" cy="185.9" r="4" fill="#2a78d6" stroke="#fcfcfb" stroke-width="2"/>
<circle cx="550.0" cy="160.6" r="4" fill="#2a78d6" stroke="#fcfcfb" stroke-width="2"/>
<circle cx="620.0" cy="135.9" r="4" fill="#2a78d6" stroke="#fcfcfb" stroke-width="2"/>
<circle cx="690.0" cy="135.9" r="4" fill="#2a78d6" stroke="#fcfcfb" stroke-width="2"/>
<polyline points="60.0,388.0 130.0,364.8 200.0,351.2 270.0,299.6 340.0,280.0 410.0,244.9 480.0,191.1 550.0,175.6 620.0,142.3 690.0,135.9" fill="none" stroke="#eb6834" stroke-width="2" stroke-linejoin="round"/>
<circle cx="60.0" cy="388.0" r="4" fill="#eb6834" stroke="#fcfcfb" stroke-width="2"/>
<circle cx="130.0" cy="364.8" r="4" fill="#eb6834" stroke="#fcfcfb" stroke-width="2"/>
<circle cx="200.0" cy="351.2" r="4" fill="#eb6834" stroke="#fcfcfb" stroke-width="2"/>
<circle cx="270.0" cy="299.6" r="4" fill="#eb6834" stroke="#fcfcfb" stroke-width="2"/>
<circle cx="340.0" cy="280.0" r="4" fill="#eb6834" stroke="#fcfcfb" stroke-width="2"/>
<circle cx="410.0" cy="244.9" r="4" fill="#eb6834" stroke="#fcfcfb" stroke-width="2"/>
<circle cx="480.0" cy="191.1" r="4" fill="#eb6834" stroke="#fcfcfb" stroke-width="2"/>
<circle cx="550.0" cy="175.6" r="4" fill="#eb6834" stroke="#fcfcfb" stroke-width="2"/>
<circle cx="620.0" cy="142.3" r="4" fill="#eb6834" stroke="#fcfcfb" stroke-width="2"/>
<circle cx="690.0" cy="135.9" r="4" fill="#eb6834" stroke="#fcfcfb" stroke-width="2"/>
<polyline points="60.0,388.0 130.0,363.1 200.0,329.9 270.0,292.8 340.0,270.7 410.0,237.6 480.0,174.8 550.0,154.9 620.0,124.1 690.0,120.4" fill="none" stroke="#1baf7a" stroke-width="2" stroke-linejoin="round" stroke-dasharray="6 4"/>
<circle cx="60.0" cy="388.0" r="4" fill="#1baf7a" stroke="#fcfcfb" stroke-width="2"/>
<circle cx="130.0" cy="363.1" r="4" fill="#1baf7a" stroke="#fcfcfb" stroke-width="2"/>
<circle cx="200.0" cy="329.9" r="4" fill="#1baf7a" stroke="#fcfcfb" stroke-width="2"/>
<circle cx="270.0" cy="292.8" r="4" fill="#1baf7a" stroke="#fcfcfb" stroke-width="2"/>
<circle cx="340.0" cy="270.7" r="4" fill="#1baf7a" stroke="#fcfcfb" stroke-width="2"/>
<circle cx="410.0" cy="237.6" r="4" fill="#1baf7a" stroke="#fcfcfb" stroke-width="2"/>
<circle cx="480.0" cy="174.8" r="4" fill="#1baf7a" stroke="#fcfcfb" stroke-width="2"/>
<circle cx="550.0" cy="154.9" r="4" fill="#1baf7a" stroke="#fcfcfb" stroke-width="2"/>
<circle cx="620.0" cy="124.1" r="4" fill="#1baf7a" stroke="#fcfcfb" stroke-width="2"/>
<circle cx="690.0" cy="120.4" r="4" fill="#1baf7a" stroke="#fcfcfb" stroke-width="2"/>
<text x="610.0" y="123.9" font-size="12" fill="#0b0b0b" text-anchor="end">PV 13,67</text>
<text x="698.0" y="112.4" font-size="12" fill="#0b0b0b">AC 14,51</text>
<text x="698.0" y="151.9" font-size="12" fill="#0b0b0b">EV 13,67</text>
</svg>